Coordinates
version=1
nRows=13
nColumns=30
inDegrees=yes

Units are S.I. units (second, meters, Newtons, ...)
Angles are in degrees.

endheader
time	floatyaw	floatroll	floatpitch	floatx	floaty	floatz	pro_sup_l	deviation_l	flexion_l	cmc_flexion_l	cmc_abduction_l	mp_flexion_l	ip_flexion_l	2mcp_flexion_l	2mcp_abduction_l	2pm_flexion_l	2md_flexion_l	3mcp_flexion_l	3mcp_abduction_l	3pm_flexion_l	3md_flexion_l	4mcp_flexion_l	4mcp_abduction_l	4pm_flexion_l	4md_flexion_l	5mcp_flexion_l	5mcp_abduction_l	5pm_flexion_l	5md_flexion_l
0.005000	3.286137	-2.351481	98.024303	0.017106	-0.115925	0.029568	106.463186	15.125213	-15.897583	24.150506	32.554633	-19.468952	-37.865238	25.644826	2.422959	46.504223	31.121344	29.620565	4.747329	39.140700	25.489780	21.024844	-3.300385	49.772467	34.510225	14.943418	-5.508959	50.365826	35.606297
0.015000	3.286137	-2.351481	98.024303	0.028589	-0.115558	0.033260	107.002296	15.875731	-13.710555	23.300953	33.523588	-20.087946	-39.449617	29.511831	3.073166	47.335154	31.826481	33.288304	4.844360	40.200799	26.383571	24.663871	-3.694146	50.524092	35.438060	17.900202	-5.813618	51.513318	36.348401
0.025000	3.286137	-2.351481	98.024303	0.038763	-0.116152	0.036102	106.252863	16.812506	-11.312670	21.752018	34.486121	-21.047150	-41.761393	34.978980	4.012252	48.906869	33.068837	37.989294	5.035901	42.434146	28.160539	29.379559	-4.178661	52.631487	37.284006	22.488330	-6.329913	53.908247	37.734879
0.035000	3.286137	-2.351481	98.024303	0.047112	-0.117246	0.038029	104.363931	17.896348	-9.029257	19.731974	35.708085	-22.180741	-44.686831	41.182168	5.077694	51.017113	34.724383	43.024501	5.288203	45.529302	30.671295	34.662821	-4.669549	55.701709	39.889886	28.244452	-6.940375	57.206678	39.609660
0.045000	3.286137	-2.351481	98.024303	0.053341	-0.118382	0.039107	101.728408	19.035685	-7.070570	17.539281	37.255041	-23.321410	-47.959286	47.123522	6.061108	53.271238	36.551127	47.619913	5.544944	48.937550	33.593311	39.898708	-5.089123	59.052009	42.937137	34.412841	-7.476686	60.818769	41.698662
0.055000	3.286137	-2.351481	98.024303	0.057461	-0.119230	0.039492	98.852372	20.132477	-5.535899	15.443368	38.983646	-24.346268	-51.216830	51.988083	6.779678	55.228846	38.274342	51.173640	5.749069	52.073595	36.536726	44.530200	-5.389223	61.976473	46.048219	40.151890	-7.781939	64.147035	43.707779
0.065000	3.286137	-2.351481	98.024303	0.059764	-0.119636	0.039360	96.184559	21.117879	-4.448787	13.614934	40.631223	-25.197373	-54.096813	55.359843	7.137311	56.563251	39.680644	53.430948	5.863082	54.509951	39.163312	48.195554	-5.561630	64.004318	48.897061	44.788619	-7.769234	66.787429	45.411668
0.075000	3.286137	-2.351481	98.024303	0.060726	-0.119570	0.038857	93.990523	21.966124	-3.791479	12.112054	41.945879	-25.879599	-56.336070	57.266060	7.146443	57.153605	40.674044	54.518286	5.879130	56.073867	41.267209	50.796763	-5.633139	65.020280	51.280398	48.014816	-7.448723	68.596677	46.695363
0.085000	3.286137	-2.351481	98.024303	0.060857	-0.119008	0.038089	92.325349	22.688186	-3.519129	10.911344	42.787826	-26.442505	-57.836246	58.064939	6.904334	57.075744	41.273037	54.836400	5.816351	56.820278	42.793144	52.482796	-5.649438	65.204707	53.129429	49.935724	-6.913267	69.624489	47.544565
0.095000	3.286137	-2.351481	98.024303	0.060586	-0.117840	0.037148	91.097063	23.314994	-3.557636	9.951925	43.161897	-26.950823	-58.665046	58.252306	6.541966	56.518773	41.563416	54.875900	5.709190	56.925078	43.801189	53.560662	-5.656021	64.859124	54.475618	50.958993	-6.294769	69.987863	48.006425
0.105000	3.286137	-2.351481	98.024303	0.060200	-0.115885	0.036144	90.166520	23.880518	-3.802876	9.166450	43.184984	-27.450663	-58.997366	58.275513	6.173600	55.688297	41.642996	55.040804	5.593271	56.575020	44.408606	54.371468	-5.683639	64.235661	55.402131	51.592109	-5.715569	69.778710	48.149915
0.115000	3.286137	-2.351481	98.024303	0.059847	-0.113009	0.035205	89.425134	24.410176	-4.134663	8.494096	43.021507	-27.944860	-59.032514	58.416155	5.867853	54.746878	41.589834	55.542466	5.494774	55.911725	44.741362	55.178451	-5.742110	63.458965	56.007049	52.246680	-5.256181	69.051816	48.046184
0.125000	3.286137	-2.351481	98.024303	0.059580	-0.109296	0.034449	88.821253	24.914892	-4.444510	7.884427	42.822972	-28.391041	-58.930138	58.760957	5.645177	53.803986	41.462081	56.382735	5.426254	55.038560	44.912587	56.104207	-5.822455	62.553620	56.386967	53.122682	-4.947013	67.877159	47.771667
